<?xml version="1.0" standalone="no"?>
<!DOCTYPE svg PUBLIC "-//W3C//DTD SVG 1.1//EN" "http://www.w3.org/Graphics/SVG/1.1/DTD/svg11.dtd" >
<svg xmlns="http://www.w3.org/2000/svg" xmlns:xlink="http://www.w3.org/1999/xlink" version="1.1">
<metadata></metadata>
<defs>
<font id="liquidofluid" horiz-adv-x="657" >
<font-face units-per-em="2048" ascent="1638" descent="-410" />
<missing-glyph horiz-adv-x="307" />
<glyph horiz-adv-x="0" />
<glyph horiz-adv-x="682" />
<glyph unicode=" "  horiz-adv-x="307" />
<glyph unicode="&#x09;" horiz-adv-x="307" />
<glyph unicode="&#xa0;" horiz-adv-x="307" />
<glyph unicode="!" horiz-adv-x="296" d="M0 717q0 60 15 107t33 72.5t33 71.5t15 105v361h180v-361q0 -59 -15 -105t-33 -71.5t-33 -72.5t-15 -107q0 -59 15 -105t33 -72t33 -73t15 -107v-90h-180v90q0 60 -15 107t-33 73t-33 72t-15 105zM96 0v180h180v-180h-180z" />
<glyph unicode="$" horiz-adv-x="593" d="M12 864q-6 31 13 90q18 52 18 111v109q0 86 50 154.5t130 96.5v105h180v-105q58 -21 101 -63t63 -100q17 -49 17 -91v-90h-181v90q0 37 -26.5 64t-63.5 27t-63.5 -27t-26.5 -64v-104q0 -49 -8 -80q-2 -9 -8.5 -31t-8.5 -33.5t1.5 -31.5t15.5 -41q1 -2 10.5 -18.5 t11.5 -19.5t12.5 -19t16 -22.5t19 -23t25.5 -27.5t31 -29.5t39.5 -35.5t48 -39.5t58.5 -46.5q48 -38 72.5 -87.5t24.5 -127.5v-37v-55q0 -41 -17 -90q-20 -57 -63.5 -100.5t-100.5 -63.5v-104h-180v104q-79 28 -129.5 98t-50.5 156v88h180v-88q0 -37 26.5 -63.5t63.5 -26.5 t63.5 26.5t26.5 63.5v92q0 40 -8 80q-6 24 -56.5 64t-123 98.5t-115.5 114.5q-81 106 -88 153z" />
<glyph unicode="&#x26;" horiz-adv-x="749" d="M10 717q0 104 42 178t104 92q-17 10 -33.5 36t-16.5 50v90v2v2v11v2q1 87 51.5 156.5t129.5 97.5q46 16 90 16q46 0 92 -16q79 -28 129 -97.5t51 -156.5q-2 0 -2 -2h-180v2q0 37 -26 62.5t-64 25.5q-37 0 -62.5 -25.5t-25.5 -62.5v-2h-2v-13q2 -37 27.5 -62.5t62.5 -25.5 h4h358v-4q0 -59 -12.5 -97t-36.5 -79h-90q-32 -67 -39 -92q-10 -42 -10 -88q0 -59 15.5 -105.5t33.5 -73t33.5 -73t15.5 -105.5v-59v-45h-2l2 -2q-1 -87 -51 -156.5t-129 -97.5q-46 -16 -92 -16q-44 0 -90 16q-79 28 -129.5 97.5t-51.5 156.5v2v104q0 59 -15 105.5t-33 73 t-33 73t-15 105.5zM190 717q0 -59 15 -105.5t33.5 -73t33.5 -73t15 -105.5v-104h2v-2q0 -37 25.5 -62.5t62.5 -25.5q38 0 64 25.5t26 62.5v2v45v39v20q0 59 -15 105.5t-33 73t-33 73t-15 105.5q0 19 4 51q2 28 14 63v3q5 14 31 61h-90q-97 0 -121 -66q-19 -49 -19 -112z" />
<glyph unicode="(" horiz-adv-x="591" d="M20 719q0 59 15 104.5t32.5 71t32.5 71t15 103.5v279q0 86 49 154.5t127 96.5q43 15 90 15h170v-176h-170q-37 0 -63.5 -26.5t-26.5 -63.5v-279q0 -48 -9.5 -85.5t-23.5 -63t-28 -51.5t-23.5 -64t-9.5 -86t9.5 -85.5t23.5 -63t28 -51.5t23.5 -64t9.5 -86v-283 q0 -37 26.5 -62.5t63.5 -25.5h170v-178h-170q-44 0 -90 16q-78 28 -127 96.5t-49 153.5v283q0 59 -15 104.5t-32.5 71t-32.5 71t-15 103.5z" />
<glyph unicode=")" horiz-adv-x="520" d="M61 -2h172q37 0 63 25.5t26 62.5v283q0 59 -15 104.5t-32.5 71t-32.5 71t-15 103.5q0 59 15 104.5t32.5 71t32.5 71t15 103.5v281q0 36 -26 62t-63 26h-172v176h172q49 0 89 -15q79 -28 128.5 -96t49.5 -153v-281q0 -48 -10 -85.5t-24 -63t-28.5 -51.5t-24.5 -64t-10 -86 t10 -85.5t24.5 -63t28.5 -51.5t24 -64t10 -86v-283q0 -85 -49.5 -153.5t-128.5 -96.5q-43 -16 -89 -16h-172v178z" />
<glyph unicode="*" horiz-adv-x="579" d="M0 1108l98 55l-98 58l90 157l98 -57v113h181v-113l100 57l90 -157l-100 -58l100 -55l-20 -35q-33 -60 -93 -123l-81 58q-10 -49 -46 -115h-180q34 63 45 115q-1 0 -24.5 -12.5t-52 -27t-39.5 -18.5q-10 58 -50 123z" />
<glyph unicode="+" horiz-adv-x="612" d="M0 717q0 48 10 90h185q9 37 38.5 90.5t38.5 89.5h181q-9 -36 -39 -89.5t-39 -90.5h176q-10 -31 -10 -90q0 -48 10 -90h-176q10 -35 39.5 -89t38.5 -92h-181q-9 38 -38 92t-39 89h-185q-10 42 -10 90z" />
<glyph unicode="," horiz-adv-x="342" d="M20 -90q45 0 73 26t28 64v188h180v-188q0 -91 -48.5 -161t-131.5 -99q-61 -21 -101 -21v191z" />
<glyph unicode="-" horiz-adv-x="612" d="M0 717q0 48 10 90h541q-10 -42 -10 -90t10 -90h-541q-10 42 -10 90z" />
<glyph unicode="." horiz-adv-x="303" d="M102 0v180h181v-180h-181z" />
<glyph unicode="/" horiz-adv-x="561" d="M0 0l88 360q14 54 11 100t-13.5 75t-14.5 76.5t9 105.5q12 51 38 96t52 75t54 79t42 106l88 361h187l-90 -361q-14 -57 -42 -106t-53.5 -79t-51.5 -75t-38 -96q-14 -57 -10.5 -105.5t14.5 -77t14.5 -74.5t-10.5 -100l-88 -360h-186z" />
<glyph unicode="0" horiz-adv-x="659" d="M10 717q0 60 15.5 107t34 72.5t34 71.5t15.5 105v39v47v21q0 87 50 156.5t130 97.5q46 16 90 16t90 -16q79 -28 129.5 -98t50.5 -156v-27v-41v-39q0 -59 -15 -105t-33 -71.5t-33 -72.5t-15 -107q0 -59 15 -105t33 -72t33 -73t15 -107v-104q0 -88 -50.5 -158t-129.5 -98 q-41 -14 -90 -14t-90 14q-80 28 -130 98t-50 158v104q0 60 -15.5 107t-34 73t-34 72t-15.5 105zM190 717q0 -59 15.5 -105t34 -72t34 -73t15.5 -107v-104q0 -38 26 -64t64 -26q37 0 63.5 26t26.5 64v104q0 60 -15 107t-33 73t-33 72t-15 105q0 60 15 107t33 72.5t33 71.5 t15 105v39v41v27q0 37 -26.5 63.5t-63.5 26.5q-38 0 -64 -26.5t-26 -63.5v-27v-41v-39q0 -59 -15.5 -105t-34 -71.5t-34 -72.5t-15.5 -107z" />
<glyph unicode="1" horiz-adv-x="421" d="M41 1253v181h360v-361q0 -59 -15 -105t-33 -71.5t-33 -72.5t-15 -107q0 -59 15 -105t33 -72t33 -73t15 -107v-360h-180v360q0 60 -15 107t-33 73t-33 72t-15 105q0 60 15 107t33 72.5t33 71.5t15 105v180h-180z" />
<glyph unicode="2" horiz-adv-x="655" d="M43 569q6 31 14.5 52.5t37.5 60.5t79 84q44 41 112.5 93t103 83t38.5 53q6 35 6 80v105q0 37 -26 63.5t-64 26.5q-37 0 -63.5 -26.5t-26.5 -63.5v-90h-180v90q0 44 16 90q28 80 97 130t157 50q47 0 90 -16q79 -28 129.5 -97t50.5 -155v-107q0 -67 -18 -114 q-32 -91 -260 -279q-83 -69 -103.5 -117.5t7.5 -103.5q6 -11 8 -21q6 -35 6 -80v-180h360v-180h-540v360q0 68 -19 117q-19 56 -12 92z" />
<glyph unicode="3" horiz-adv-x="622" d="M41 256v88h180v-88q0 -37 26.5 -63.5t63.5 -26.5t63.5 26.5t26.5 63.5v43v61q0 60 -15 107t-33 73.5t-33 73t-15 105.5h-162q0 42 8 78t15 52t24 48h162q16 29 24.5 47.5t16.5 54t8 76.5v58v47q0 37 -26.5 63.5t-63.5 26.5t-63.5 -26.5t-26.5 -63.5v-88h-180v88 q0 86 50.5 156t129.5 98q46 16 90 16t90 -16q79 -28 130 -98t51 -156v-47v-58q0 -59 -15 -105.5t-33.5 -72.5t-33.5 -72.5t-15 -105.5t15 -105.5t33.5 -73t33.5 -73.5t15 -107v-61v-43q0 -86 -51 -156t-130 -98q-46 -16 -90 -16t-90 16q-79 28 -129.5 98t-50.5 156z" />
<glyph unicode="4" horiz-adv-x="620" d="M42 611.5q-4 47.5 9 105.5q12 51 38 96t52.5 75t54.5 79t42 106l88 361h186l-90 -361q-14 -57 -41.5 -106t-53.5 -79t-51.5 -75t-37.5 -96q-14 -57 -10.5 -105.5t14.5 -77t14.5 -74.5t-10.5 -100h176v189h178v-549h-178v180h-363v180h2q14 54 10.5 100t-14.5 75t-15 76.5 z" />
<glyph unicode="5" horiz-adv-x="653" d="M41 893q17 31 25.5 48t17 53.5t8.5 78.5v361h541v-181h-361v-180h90q142 0 193 -92q8 -16 11 -36t0 -43t-5.5 -37t-9 -37.5t-6.5 -24.5l-2 -8q-8 -46 -8 -80q0 -59 15.5 -105t33.5 -72t33.5 -73t15.5 -107v-104q0 -41 -17 -90q-28 -80 -96.5 -130t-154.5 -50h-3 q-47 0 -90 16q-80 28 -130 97.5t-50 156.5v88h180v-88q0 -37 26 -63.5t64 -26.5q37 0 64 26.5t27 63.5v104q0 60 -15.5 107t-34 73t-34 72t-15.5 105q0 42 11 88q10 39 -5 67q-17 23 -49 23h-270zM543 797z" />
<glyph unicode="6" horiz-adv-x="679" d="M10 719q0 59 15 105.5t33 72.5t33 72.5t15 105.5v37v47v21q0 87 51 156.5t132 97.5q43 16 90 16q44 0 90 -16q79 -28 129.5 -98t50.5 -156v-27v-41v-20h-180v20v41v27q0 37 -26.5 63.5t-63.5 26.5q-38 0 -64 -26.5t-26 -63.5v-27v-41v-37q0 -18 -1.5 -35t-3.5 -29 t-6.5 -27t-7 -23t-9.5 -22t-9.5 -18.5t-10.5 -19.5t-10 -18q76 29 150.5 8t116.5 -88q11 -16 19.5 -33.5t16 -39.5t11 -34t10.5 -38t8 -31q9 -34 32 -74.5t38.5 -85t15.5 -107.5v-104q0 -86 -50.5 -156t-129.5 -98q-46 -16 -90 -16q-47 0 -90 16q-81 28 -132 97.5t-51 156.5 v104q0 60 -15 107t-33 73.5t-33 73t-15 105.5zM203 627q9 -34 32 -74.5t38.5 -85t15.5 -107.5v-104q0 -37 26 -63.5t64 -26.5q37 0 63.5 26.5t26.5 63.5v104q0 63 -15.5 107.5t-38.5 85t-32 74.5q-10 38 -41.5 66t-71.5 24q-36 -4 -56 -31.5t-11 -58.5z" />
<glyph unicode="7" horiz-adv-x="602" d="M41 1253v181h541v-181l-45 -180q-14 -57 -42 -106t-53.5 -79t-51.5 -75t-38 -96q-14 -57 -10.5 -105.5t14.5 -77t14.5 -74.5t-10.5 -100l-90 -360h-184l88 360q14 54 10.5 100t-14 75t-14 76.5t9.5 105.5q12 51 37.5 96t51.5 75t53.5 79t41.5 106l45 180h-354z" />
<glyph unicode="8" d="M10 717q0 106 41.5 179t104.5 91q-18 9 -34 36t-16 52v90v2v13q0 87 50.5 156.5t130.5 97.5q46 16 90 16t90 -16q80 -28 130 -97t50 -157v-13q0 -46 -16 -92q-16 -43 -64 -88q14 -18 17 -42.5t0.5 -39.5t-12.5 -52t-13 -48q-8 -50 -8 -88q0 -59 15 -105t33 -72t33 -73 t15 -107v-59v-45q0 -88 -50 -157t-130 -97q-46 -16 -90 -16t-90 16q-80 28 -130.5 97.5t-50.5 156.5v104q0 60 -15 107t-33 73t-33 72t-15 105zM190 717q0 -59 15 -105t33.5 -72t33.5 -73t15 -107v-104q0 -38 26.5 -64t63.5 -26t63 26t27 64v45v41v18q0 60 -15 107t-33 73 t-33 72t-15 105q0 67 16 117q23 57 -59 63q-50 0 -80.5 -19t-40.5 -47q-17 -44 -17 -114zM287 1165q0 -37 26.5 -62.5t63.5 -25.5t63.5 26.5t26.5 63.5v13q-1 38 -27 64t-63 26t-63.5 -26t-26.5 -64v-15z" />
<glyph unicode="9" horiz-adv-x="653" d="M14 809q10 34 33 75.5t38 85t15 105.5v37v47v21q0 87 51 156.5t132 97.5q43 16 90 16q44 0 90 -16q79 -28 129.5 -98t50.5 -156v-27v-41v-37q0 -59 -15.5 -105.5t-33.5 -72.5t-33.5 -72.5t-15.5 -105.5t15.5 -105.5t33.5 -73t33.5 -73.5t15.5 -107v-104q0 -86 -50.5 -156 t-129.5 -98q-46 -16 -90 -16q-47 0 -90 16q-81 28 -132 97.5t-51 156.5v88h183v-88q0 -37 26 -63.5t64 -26.5q37 0 63.5 26.5t26.5 63.5v104q0 20 -1.5 38t-5.5 35t-6.5 28t-9.5 27t-9.5 21.5t-12 23t-10.5 20.5q-21 -14 -84 -14q-87 0 -165 36t-120.5 99.5t-24.5 134.5z M195 809q-8 -38 18.5 -64t60.5 -26q76 0 101 82q7 32 23 65t30 56t24.5 63t10.5 90v37v41v27q0 37 -26.5 63.5t-63.5 26.5q-38 0 -64 -26.5t-26 -63.5v-27v-41v-37q0 -62 -15.5 -105.5t-39 -84.5t-33.5 -76z" />
<glyph unicode=":" horiz-adv-x="327" d="M31 700h180q0 -21 3.5 -41t6 -33t10.5 -31.5t11 -24.5t13.5 -25.5t12.5 -22.5h-180q-2 3 -12.5 22.5t-13.5 25.5t-11 24.5t-10.5 31.5t-6 33t-3.5 41zM127 0v180h180v-180h-180z" />
<glyph unicode=";" horiz-adv-x="342" d="M20 -90q45 0 73 26t28 64v180h180v-180q0 -91 -48.5 -161t-131.5 -99q-61 -21 -101 -21v191zM25 700h180q0 -21 3.5 -41t6 -33t10.5 -31.5t11 -24.5t13.5 -25.5t12.5 -22.5h-180q-2 3 -12.5 22.5t-13.5 25.5t-11 24.5t-10.5 31.5t-6 33t-3.5 41z" />
<glyph unicode="=" d="M0 662h543q4 -37 15 -67.5t29 -62.5t25 -51h-540q-8 18 -26 51t-29.5 62.5t-16.5 67.5zM2 772q7 48 39.5 108.5t36.5 71.5h538q-4 -12 -34 -72t-37 -108h-543z" />
<glyph unicode="?" horiz-adv-x="561" d="M0 1092v88q0 87 50 156.5t130 99.5q51 14 90 14t90 -14q80 -30 130.5 -99.5t50.5 -156.5v-105q0 -59 -19 -114q-11 -31 -42 -56.5t-66.5 -43.5t-70 -36.5t-57 -45t-22.5 -60.5q0 -37 2 -51q4 -25 17 -64q0 -4 2 -6q15 -37 26 -55q0 -1 1 -2t1 -2q2 -4 10 -17.5t11 -21.5 q13 -39 14 -43l6 -23q1 -4 2 -13t2 -13q2 -14 2 -48v-90h-180v90q0 34 -2 48q-1 4 -2 13t-2 13l-6 23q0 6 -4 14q-9 28 -29 64q-12 24 -18 34l-13 29q-2 2 -2 6q-9 20 -16 64q-2 14 -2 51q0 24 11 44t32 36t41.5 27.5t51 27.5t48.5 27q55 32 70 69l4 11q18 52 18 114v105 q0 39 -28.5 66t-67.5 24q-35 -1 -59.5 -28.5t-24.5 -63.5v-86h-180zM180 0v180h180v-180h-180z" />
<glyph unicode="A" horiz-adv-x="659" d="M10 719q0 60 15 107t33 72.5t33 71.5t15 105v105q0 86 51 156t130 98q46 16 90 16q46 0 92 -16q79 -28 129.5 -98t50.5 -156v-105q0 -59 -15.5 -105t-33.5 -71.5t-33.5 -72.5t-15.5 -107q0 -59 15.5 -105.5t33.5 -73t33.5 -73.5t15.5 -107v-360h-180v358h-182v-358h-181 v63v297q0 60 -15 107t-33 73.5t-33 73t-15 105.5zM190 719q0 -43 9.5 -80.5t16 -51t26.5 -50.5h180q-19 35 -26 50t-16 52t-9 80q0 60 15.5 107t33.5 72.5t33.5 71.5t15.5 105v90q0 37 -27 63.5t-65 26.5q-37 0 -63.5 -26.5t-26.5 -63.5v-90q0 -48 -10 -86t-24.5 -64 t-28.5 -52.5t-24 -65t-10 -88.5z" />
<glyph unicode="B" d="M10 717q0 60 15 107t33 72.5t33 71.5t15 105v361h273q41 0 90 -17q76 -27 125.5 -93t52.5 -150v-7v-14q0 -55 -24 -98.5t-56 -67.5q14 -18 17 -42t0.5 -40.5t-11.5 -51t-12 -48.5q-10 -42 -10 -88q0 -59 15 -105t33 -72t33 -73t15 -107v-102q-3 -84 -53 -149.5 t-127 -92.5q-43 -16 -88 -16h-90h-183v360q0 60 -15 107t-33 73t-33 72t-15 105zM190 717q0 -59 15 -105t33.5 -72t33.5 -73t15 -107v-180h92q34 0 59.5 23t28.5 57v100q0 60 -15 107t-33 73t-33 72t-15 105q0 62 18 114q11 31 -6.5 47.5t-71.5 16.5h-73q-16 -30 -23.5 -47 t-16 -53t-8.5 -78zM289 1077h90q35 0 60 23.5t28 58.5q0 1 1 3t1 3v2q-2 2 -2 4q-3 34 -28 58t-60 24h-90v-176z" />
<glyph unicode="C" horiz-adv-x="659" d="M10 719q0 59 15 105.5t33 72.5t33 72.5t15 105.5v105q0 86 51 156t130 98v2q41 14 90 14q51 0 92 -14q79 -28 129.5 -98t50.5 -158v-88h-180v88q0 38 -27 64t-65 26q-37 0 -63.5 -26t-26.5 -64v-105q0 -59 -15 -105.5t-33.5 -72.5t-33.5 -72.5t-15 -105.5t15 -105.5 t33.5 -73t33.5 -73.5t15 -107v-104q0 -38 26.5 -64t63.5 -26q38 0 65 26t27 64v88h180v-88q0 -88 -50.5 -158t-129.5 -98q-41 -14 -92 -14q-49 0 -90 14q-80 30 -130.5 99.5t-50.5 156.5v104q0 60 -15 107t-33 73.5t-33 73t-15 105.5z" />
<glyph unicode="D" d="M10 717q0 60 15 107t33 72.5t33 71.5t15 105v127v234h271q41 0 90 -17q79 -28 129.5 -98t50.5 -156v-90q0 -59 -15 -105t-33 -71.5t-33 -72.5t-15 -107q0 -59 15 -105t33 -72t33 -73t15 -107v-90q0 -86 -50.5 -156t-129.5 -98q-46 -16 -90 -16h-90h-181v281v32v47 q0 60 -15 107t-33 73t-33 72t-15 105zM190 717q0 -59 15 -105t33.5 -72t33.5 -73t15 -107v-180h90q37 0 63.5 26.5t26.5 63.5v90q0 60 -15 107t-33 73t-33 72t-15 105q0 60 15 107t33 72.5t33 71.5t15 105v90q0 37 -26.5 63.5t-63.5 26.5h-90v-180q0 -48 -10 -86t-24.5 -64 t-28.5 -52.5t-24 -65t-10 -88.5z" />
<glyph unicode="E" d="M10 717q0 60 15 107t33 72.5t33 71.5t15 105v230v131h541v-181h-360v-178h178v-2q0 -41 -8 -76.5t-16 -53t-23 -46.5h-180q-16 -28 -24.5 -47.5t-16 -55t-7.5 -77.5q0 -59 15 -105t33.5 -72t33.5 -73t15 -107v-180h360v-180h-541v168v192q0 60 -15 107t-33 73t-33 72 t-15 105z" />
<glyph unicode="F" d="M10 717q0 60 15 107t33 72.5t33 71.5t15 105v232v129h541v-179h-360v-178h178v-4q0 -41 -7.5 -75.5t-15.5 -53.5t-24 -47h-178q-17 -30 -25 -48t-16.5 -54t-8.5 -78q0 -59 15 -105t33.5 -72t33.5 -73t15 -107v-360h-181v168v192q0 60 -15 107t-33 73t-33 72t-15 105z" />
<glyph unicode="G" d="M10 705q0 60 15 107t33 72.5t33 71.5t15 105v119q0 88 50.5 158t130.5 98q46 16 90 16q47 0 90 -16q80 -28 130 -98t50 -158v-86h-180v86q0 38 -26 64t-64 26q-37 0 -63.5 -26t-26.5 -64v-119q0 -48 -10 -86t-24.5 -64t-28.5 -52.5t-24 -65t-10 -88.5q0 -59 15 -105.5 t33.5 -73t33.5 -73t15 -105.5v-90q0 -38 26.5 -64t63.5 -26q38 0 64 26t26 64v90q0 59 -15 105.5t-33 73t-33 73t-15 105.5v14h-60q0 19 2 35.5t6 32t6.5 25.5t10 25.5t9.5 20.5t11 21.5t11 19.5h241q-2 -4 -11.5 -21t-12 -23t-10 -22t-10 -26.5t-6.5 -27.5t-5.5 -35 t-1.5 -39q0 -59 15 -105.5t33 -73t33 -73t15 -105.5v-18v-72q0 -88 -50 -158t-130 -98q-43 -16 -90 -16q-44 0 -90 16q-80 28 -130.5 98t-50.5 158v35v55q0 59 -15 105.5t-33 73t-33 73t-15 105.5z" />
<glyph unicode="H" d="M10 717q0 60 15 107t33 72.5t33 71.5t15 105v361h181v-359h180v359h180v-361q0 -59 -15 -105t-33 -71.5t-33 -72.5t-15 -107q0 -59 15 -105t33 -72t33 -73t15 -107v-360h-180v360q0 60 -15 107t-33 73t-33 72t-15 105q0 42 8 77.5t16.5 54.5t24.5 48h-180 q-17 -30 -25 -48t-16.5 -54t-8.5 -78q0 -59 15 -105t33.5 -72t33.5 -73t15 -107v-360h-181v360q0 60 -15 107t-33 73t-33 72t-15 105z" />
<glyph unicode="I" horiz-adv-x="296" d="M10 717q0 60 15 107t33 72.5t33 71.5t15 105v361h181v-361q0 -48 -10 -86t-24.5 -64t-28.5 -52.5t-24 -65t-10 -88.5q0 -59 15 -105t33.5 -72t33.5 -73t15 -107v-360h-181v360q0 60 -15 107t-33 73t-33 72t-15 105z" />
<glyph unicode="J" horiz-adv-x="653" d="M102 254v88h181v-88q0 -38 26 -64t64 -26q37 0 63.5 26t26.5 64v104q0 60 -15 107t-33 73t-33 72t-15 105q0 60 15 107t33 73t33 72.5t15 105.5v361h180v-361q0 -59 -15 -105.5t-33 -72.5t-33 -73t-15 -107q0 -59 15 -105t33 -72t33 -73t15 -107v-104q0 -88 -50.5 -158 t-129.5 -98q-41 -14 -90 -14q-52 0 -90 14q-81 28 -131 98t-50 158z" />
<glyph unicode="K" d="M10 717q0 60 15 107t33 72.5t33 71.5t15 105v361h183v-357h90q35 0 60 23.5t28 58.5q2 2 2 6v269h178v-260v-7v-2v-12q0 -68 -34 -112.5t-74 -53.5q19 -19 28.5 -41t7.5 -52.5t-4 -43t-10 -45.5q-10 -42 -10 -88q0 -59 15 -105t33 -72t33 -73t15 -107v-102v-6v-252h-180 v262v60v38q0 60 -15 107t-33 73t-33 72t-15 105q0 62 18 114q11 31 -6.5 47.5t-71.5 16.5h-73q-16 -30 -23.5 -47t-16 -53t-8.5 -78q0 -59 15 -105t33.5 -72t33.5 -73t15 -107v-98v-78v-184h-181v360q0 60 -15 107t-33 73t-33 72t-15 105z" />
<glyph unicode="L" d="M10 717q0 60 15 107t33 72.5t33 71.5t15 105v361h181v-361q0 -48 -10 -86t-24.5 -64t-28.5 -52.5t-24 -65t-10 -88.5q0 -59 15 -105t33.5 -72t33.5 -73t15 -107v-180h360v-180h-541v360q0 60 -15 107t-33 73t-33 72t-15 105z" />
<glyph unicode="M" d="M10 717q0 60 15 107t33 72.5t33 71.5t15 105v45v187v129h177l94 -187l96 187h174v-107v-231v-23q0 -59 -15 -105t-33 -71.5t-33 -72.5t-15 -107q0 -59 15 -105t33 -72t33 -73t15 -107v-360h-180v360q0 60 -15 107t-33 73t-33 72t-15 105q0 56 13 100t29.5 68.5t32 64.5 t19.5 86l-4 -8q-2 -4 -6 -11t-6 -11l-17 -23q-6 -12 -16 -22l-21 -23q-3 -2 -10 -9t-12 -9q-9 -9 -21 -17q-7 -5 -19.5 -12.5t-17.5 -11.5l-34 -21q2 14 6 37l6 39v20q2 6 2 21q0 3 -1 9t-1 9t-1 9.5t-1 9.5q-4 12 -4 16q-2 2 -2 4q-5 -45 -21 -84t-32 -63.5t-29 -68.5 t-13 -99q0 -59 15 -105t33.5 -72t33.5 -73t15 -107v-360h-181v360q0 60 -15 107t-33 73t-33 72t-15 105z" />
<glyph unicode="N" d="M10 717q0 60 15 107t33 72.5t33 71.5t15 105v361h181l180 -361v361h180v-361q0 -59 -15.5 -105t-33.5 -71.5t-33.5 -72.5t-15.5 -107q0 -59 15.5 -105t33.5 -72t33.5 -73t15.5 -107v-360h-180v360q0 56 -13 100t-29.5 69t-32.5 64.5t-21 84.5q-39 62 -53 116 q-12 44 -12 74q0 6 1 12q1 15 1 32q0 20 -2 42q-4 42 -21 82q-4 -46 -20 -86t-33 -64.5t-30.5 -68.5t-13.5 -100q0 -59 15.5 -105t34 -72t34 -73t15.5 -107v-360h-181v360q0 60 -15 107t-33 73t-33 72t-15 105z" />
<glyph unicode="O" horiz-adv-x="659" d="M10 717q0 60 15.5 107t34 72.5t34 71.5t15.5 105v39v47v21q0 87 50 156.5t130 97.5q46 16 90 16t90 -16q79 -28 129.5 -98t50.5 -156v-27v-41v-39q0 -59 -15 -105t-33 -71.5t-33 -72.5t-15 -107q0 -59 15 -105t33 -72t33 -73t15 -107v-104q0 -88 -50.5 -158t-129.5 -98 q-41 -14 -90 -14t-90 14q-80 28 -130 98t-50 158v104q0 60 -15.5 107t-34 73t-34 72t-15.5 105zM190 717q0 -59 15.5 -105t34 -72t34 -73t15.5 -107v-104q0 -38 26 -64t64 -26q37 0 63.5 26t26.5 64v104q0 60 -15 107t-33 73t-33 72t-15 105q0 60 15 107t33 72.5t33 71.5 t15 105v39v41v27q0 37 -26.5 63.5t-63.5 26.5q-38 0 -64 -26.5t-26 -63.5v-27v-41v-39q0 -59 -15.5 -105t-34 -71.5t-34 -72.5t-15.5 -107z" />
<glyph unicode="P" d="M10 717q0 60 15 107t33 72.5t33 71.5t15 105v244v117h271q41 0 90 -17q80 -28 130 -97t50 -157q0 -86 -50.5 -156t-129.5 -98q-46 -16 -90 -16h-139q-24 -40 -36 -78.5t-12 -97.5t15 -105t33.5 -72t33.5 -73t15 -107v-360h-181v152v208q0 60 -15 107t-33 73t-33 72 t-15 105zM287 1073h90q37 0 63.5 26.5t26.5 63.5t-26.5 63.5t-63.5 26.5h-90v-137v-43z" />
<glyph unicode="Q" horiz-adv-x="663" d="M10 725q0 61 15.5 108t34 73.5t34 73t15.5 105.5v37v33v23q0 88 50 158t130 98q46 16 92 16q44 0 90 -16q82 -28 132 -97.5t50 -158.5v-27v-29v-37q0 -59 -15 -105.5t-33 -73t-33 -73.5t-15 -108q0 -60 15 -107t33 -73t33 -73t15 -107v-105q0 -90 -49.5 -159.5 t-132.5 -100.5v-104h-182v104q-81 31 -130.5 101t-49.5 159v105q0 60 -15.5 107t-34 73t-34 73t-15.5 107zM193 725q0 -60 15 -107t33 -73t33 -73t15 -107v-105q0 -38 27 -65t65 -27t64 27t26 65v105q0 60 -15 107t-33 73t-33 73t-15 107q0 61 15 108t33 73.5t33 73 t15 105.5v37v29v27q0 38 -26 64t-64 26t-65 -26t-27 -64v-27v-29v-37q0 -59 -15 -105.5t-33 -73t-33 -73.5t-15 -108z" />
<glyph unicode="R" d="M10 717q0 60 15 107t33 72.5t33 71.5t15 105v361h273q41 0 90 -17q76 -27 125.5 -92.5t52.5 -150.5v-7v-14q0 -55 -24 -98.5t-56 -67.5q14 -18 17 -42t0.5 -40.5t-11.5 -51t-12 -48.5q-10 -42 -10 -88q0 -59 15 -105t33 -72t33 -73t15 -107v-47v-313h-180v313v47 q0 60 -15 107t-33 73t-33 72t-15 105q0 62 18 114q5 13 5 23q0 43 -83 43h-73q-17 -33 -24 -49t-15.5 -52.5t-8.5 -78.5q0 -59 15 -105t33.5 -72t33.5 -73t15 -107v-84v-92v-184h-181v360q0 60 -15 107t-33 73t-33 72t-15 105zM289 1077h90q35 0 60 23.5t28 58.5q0 1 1 3 t1 3v2q0 1 -1 2t-1 2q-3 35 -28 58.5t-60 23.5h-90v-176z" />
<glyph unicode="S" horiz-adv-x="595" d="M12 870q-1 8 -1 16q0 33 16 75q18 52 18 110v109q0 86 50.5 156t129.5 98q43 16 90 16h2q87 -1 155.5 -51t96.5 -129q17 -49 17 -90v-93h-180v93q0 37 -27 63.5t-64 26.5q-38 0 -64 -26.5t-26 -63.5v-105v-2q0 -32 -8 -78q-2 -10 -8.5 -32t-8.5 -34t1.5 -32t15.5 -41 q1 -2 10.5 -18.5t11.5 -19.5t12.5 -19t16 -22.5t19 -23t25.5 -27.5t31 -29.5t39.5 -35.5t48 -39.5t58.5 -46.5q48 -38 72.5 -87.5t24.5 -127.5v-36v-68q0 -44 -17 -90q-28 -79 -97 -129.5t-155 -50.5h-2q-52 0 -90 14q-80 28 -130 98t-50 158v86h180v-86q0 -38 26 -64 t64 -26q37 0 64 26t27 64v104q0 35 -9 80q-6 24 -57 64t-123.5 98.5t-114.5 114.5q-77 97 -90 153z" />
<glyph unicode="T" horiz-adv-x="591" d="M31 1253v181h540v-181h-180v-180q0 -59 -15 -105t-33 -71.5t-33 -72.5t-15 -107q0 -59 15 -105t33 -72t33 -73t15 -107v-360h-180v360q0 60 -15 107t-33 73t-33 72t-15 105q0 60 15 107t33 72.5t33 71.5t15 105v180h-180z" />
<glyph unicode="U" d="M10 717q0 60 15 107t33 72.5t33 71.5t15 105v361h181v-361q0 -48 -10 -86t-24.5 -64t-28.5 -52.5t-24 -65t-10 -88.5q0 -59 15 -105.5t33.5 -73t33.5 -73t15 -105.5v-106q0 -37 26.5 -63.5t63.5 -26.5q38 0 64 26.5t26 63.5v106q0 59 -15 105.5t-33 73t-33 73t-15 105.5 q0 60 15 107t33 72.5t33 71.5t15 105v361h180v-361q0 -59 -15 -105t-33 -71.5t-33 -72.5t-15 -107q0 -59 15 -105.5t33 -73t33 -73t15 -105.5v-106q0 -87 -50 -156.5t-130 -97.5q-46 -16 -90 -16t-90 16q-79 28 -130 98t-51 156v106q0 59 -15 105.5t-33 73t-33 73t-15 105.5 z" />
<glyph unicode="V" d="M10 717q0 60 15 107t33 72.5t33 71.5t15 105v232v129h181v-361q0 -48 -10 -86t-24.5 -64t-28.5 -52.5t-24 -65t-10 -88.5q0 -56 13.5 -100t30 -69t32.5 -65t19 -88l92 -182l90 176q-3 50 -19 92t-33 67t-30.5 69t-13.5 100q0 60 15 107t33 72.5t33 71.5t15 105v361h180 v-361q0 -59 -15 -105t-33 -71.5t-33 -72.5t-15 -107q0 -59 15 -105t33 -72.5t33 -73.5t15 -108l-182 -356v-2h-176v2l-183 358q0 60 -15 107t-33 73t-33 72t-15 105z" />
<glyph unicode="W" d="M10 717q0 59 15 105.5t33 72.5t33 72.5t15 105.5v361h181v-361q0 -59 -15 -105.5t-33.5 -72.5t-33.5 -72.5t-15 -105.5q0 -55 13 -99t29 -69t32 -64t21 -84q0 3 2 5q0 4 4 16q0 3 1 9t1 9t1 10t1 11q0 12 -2 20v21q-1 3 -3 17t-3 20l-6 36q14 -8 34 -20l37 -25 q2 -1 6.5 -3.5t8 -5t6.5 -5.5q8 -6 22 -20q2 -2 6 -6.5t7.5 -8t7.5 -6.5q12 -16 16 -24l17 -23q2 -4 6 -11t6 -11q4 -4 4 -9q-4 46 -19.5 86t-32 64.5t-29.5 69t-13 100.5q0 59 15 105.5t33 72.5t33 72.5t15 105.5v361h180v-361q0 -59 -15 -105.5t-33 -72.5t-33 -72.5 t-15 -105.5q0 -60 15 -107t33 -73t33 -72t15 -105v-22v-232v-106h-174l-96 188l-94 -188h-177v131v184v45q0 59 -15 105t-33 72t-33 73t-15 107z" />
<glyph unicode="X" d="M10 717q0 104 42 178t104 92q-17 5 -33.5 30.5t-16.5 55.5v90v2v2v267h181v-269q0 -37 26.5 -62.5t63.5 -25.5t63.5 26t26.5 64v267h180v-267q0 -48 -16 -94q-18 -48 -66 -86h2q14 -18 17 -42.5t0.5 -39.5t-12.5 -52t-13 -48q-10 -63 -10 -88q0 -59 15.5 -105t33.5 -72 t33.5 -73t15.5 -107v-59v-301h-180v301v39v20q0 60 -15 107t-33 73t-33 72t-15 105q0 68 16 114q5 13 5 23q0 36 -64 41q-50 0 -80.5 -19t-40.5 -47q-17 -44 -17 -112q0 -59 15 -105t33.5 -72t33.5 -73t15 -107v-360h-181v360q0 60 -15 107t-33 73t-33 72t-15 105z" />
<glyph unicode="Y" horiz-adv-x="602" d="M51 1167v267h180v-267q0 -38 27 -64t64 -26t63.5 26t26.5 64v267h180v-267q0 -45 -17 -94q-21 -55 -77.5 -98.5t-124.5 -63.5q-21 -35 -29.5 -52t-18.5 -56t-10 -86q0 -59 15 -105t33.5 -72t33.5 -73t15 -107v-360h-181v360q0 60 -15 107t-33 73t-33 72t-15 105 q0 18 1.5 35.5t3.5 30t6.5 27.5t7 22.5t9.5 22t9 19t11 19.5t10 18q-76 42 -109 95.5t-33 160.5z" />
<glyph unicode="Z" horiz-adv-x="602" d="M51 0v180l60 180q16 48 17 98v12q0 42 -6 72q-7 32 -7 75q1 3 1 7q0 48 15 93q18 57 60 113.5t86 117t65 125.5l59 180h-350v181h541v-181h-2l-58 -180l-12 -35q-26 -62 -101.5 -158.5t-96.5 -162.5q-14 -41 -16 -85v-17q0 -33 5 -59q5 -32 7 -76q0 -6 1 -13 q0 -37 -8 -72l-12 -35l-57 -180h350v-180h-350h-191z" />
<glyph unicode="[" horiz-adv-x="593" d="M20 719q0 59 15 104.5t32.5 71t32.5 71t15 103.5v545h438v-178h-260v-367q0 -58 -15 -103.5t-33 -71t-33 -71t-15 -104.5q0 -58 15 -103.5t33 -71t33 -72t15 -105.5v-369h260v-178h-438v547q0 59 -15 105.5t-32.5 72t-32.5 71t-15 103.5z" />
<glyph unicode="]" horiz-adv-x="518" d="M61 -2h261v371q0 48 -10 86t-24 64t-28.5 51.5t-24.5 63t-10 85.5t10 86t24.5 64t28.5 51.5t24 63t10 85.5v369h-261v176h437v-545q0 -58 -15 -103.5t-32.5 -71t-32.5 -71t-15 -104.5q0 -58 15 -103.5t32.5 -71t32.5 -71t15 -104.5v-549h-437v178z" />
<glyph unicode="_" horiz-adv-x="643" d="M0 0v180h541v-180h-541z" />
<glyph unicode="a" horiz-adv-x="659" d="M10 719q0 60 15 107t33 72.5t33 71.5t15 105v105q0 86 51 156t130 98q46 16 90 16q46 0 92 -16q79 -28 129.5 -98t50.5 -156v-105q0 -59 -15.5 -105t-33.5 -71.5t-33.5 -72.5t-15.5 -107q0 -59 15.5 -105.5t33.5 -73t33.5 -73.5t15.5 -107v-360h-180v358h-182v-358h-181 v63v297q0 60 -15 107t-33 73.5t-33 73t-15 105.5zM190 719q0 -43 9.5 -80.5t16 -51t26.5 -50.5h180q-19 35 -26 50t-16 52t-9 80q0 60 15.5 107t33.5 72.5t33.5 71.5t15.5 105v90q0 37 -27 63.5t-65 26.5q-37 0 -63.5 -26.5t-26.5 -63.5v-90q0 -48 -10 -86t-24.5 -64 t-28.5 -52.5t-24 -65t-10 -88.5z" />
<glyph unicode="b" d="M10 717q0 60 15 107t33 72.5t33 71.5t15 105v361h273q41 0 90 -17q76 -27 125.5 -93t52.5 -150v-7v-14q0 -55 -24 -98.5t-56 -67.5q14 -18 17 -42t0.5 -40.5t-11.5 -51t-12 -48.5q-10 -42 -10 -88q0 -59 15 -105t33 -72t33 -73t15 -107v-102q-3 -84 -53 -149.5 t-127 -92.5q-43 -16 -88 -16h-90h-183v360q0 60 -15 107t-33 73t-33 72t-15 105zM190 717q0 -59 15 -105t33.5 -72t33.5 -73t15 -107v-180h92q34 0 59.5 23t28.5 57v100q0 60 -15 107t-33 73t-33 72t-15 105q0 62 18 114q11 31 -6.5 47.5t-71.5 16.5h-73q-16 -30 -23.5 -47 t-16 -53t-8.5 -78zM289 1077h90q35 0 60 23.5t28 58.5q0 1 1 3t1 3v2q-2 2 -2 4q-3 34 -28 58t-60 24h-90v-176z" />
<glyph unicode="c" horiz-adv-x="659" d="M10 719q0 59 15 105.5t33 72.5t33 72.5t15 105.5v105q0 86 51 156t130 98v2q41 14 90 14q51 0 92 -14q79 -28 129.5 -98t50.5 -158v-88h-180v88q0 38 -27 64t-65 26q-37 0 -63.5 -26t-26.5 -64v-105q0 -59 -15 -105.5t-33.5 -72.5t-33.5 -72.5t-15 -105.5t15 -105.5 t33.5 -73t33.5 -73.5t15 -107v-104q0 -38 26.5 -64t63.5 -26q38 0 65 26t27 64v88h180v-88q0 -88 -50.5 -158t-129.5 -98q-41 -14 -92 -14q-49 0 -90 14q-80 30 -130.5 99.5t-50.5 156.5v104q0 60 -15 107t-33 73.5t-33 73t-15 105.5z" />
<glyph unicode="d" d="M10 717q0 60 15 107t33 72.5t33 71.5t15 105v127v234h271q41 0 90 -17q79 -28 129.5 -98t50.5 -156v-90q0 -59 -15 -105t-33 -71.5t-33 -72.5t-15 -107q0 -59 15 -105t33 -72t33 -73t15 -107v-90q0 -86 -50.5 -156t-129.5 -98q-46 -16 -90 -16h-90h-181v281v32v47 q0 60 -15 107t-33 73t-33 72t-15 105zM190 717q0 -59 15 -105t33.5 -72t33.5 -73t15 -107v-180h90q37 0 63.5 26.5t26.5 63.5v90q0 60 -15 107t-33 73t-33 72t-15 105q0 60 15 107t33 72.5t33 71.5t15 105v90q0 37 -26.5 63.5t-63.5 26.5h-90v-180q0 -48 -10 -86t-24.5 -64 t-28.5 -52.5t-24 -65t-10 -88.5z" />
<glyph unicode="e" d="M10 717q0 60 15 107t33 72.5t33 71.5t15 105v230v131h541v-181h-360v-178h178v-2q0 -41 -8 -76.5t-16 -53t-23 -46.5h-180q-16 -28 -24.5 -47.5t-16 -55t-7.5 -77.5q0 -59 15 -105t33.5 -72t33.5 -73t15 -107v-180h360v-180h-541v168v192q0 60 -15 107t-33 73t-33 72 t-15 105z" />
<glyph unicode="f" d="M10 717q0 60 15 107t33 72.5t33 71.5t15 105v232v129h541v-179h-360v-178h178v-4q0 -41 -7.5 -75.5t-15.5 -53.5t-24 -47h-178q-17 -30 -25 -48t-16.5 -54t-8.5 -78q0 -59 15 -105t33.5 -72t33.5 -73t15 -107v-360h-181v168v192q0 60 -15 107t-33 73t-33 72t-15 105z" />
<glyph unicode="g" d="M10 705q0 60 15 107t33 72.5t33 71.5t15 105v119q0 88 50.5 158t130.5 98q46 16 90 16q47 0 90 -16q80 -28 130 -98t50 -158v-86h-180v86q0 38 -26 64t-64 26q-37 0 -63.5 -26t-26.5 -64v-119q0 -48 -10 -86t-24.5 -64t-28.5 -52.5t-24 -65t-10 -88.5q0 -59 15 -105.5 t33.5 -73t33.5 -73t15 -105.5v-90q0 -38 26.5 -64t63.5 -26q38 0 64 26t26 64v90q0 59 -15 105.5t-33 73t-33 73t-15 105.5v14h-60q0 19 2 35.5t6 32t6.5 25.5t10 25.5t9.5 20.5t11 21.5t11 19.5h241q-2 -4 -11.5 -21t-12 -23t-10 -22t-10 -26.5t-6.5 -27.5t-5.5 -35 t-1.5 -39q0 -59 15 -105.5t33 -73t33 -73t15 -105.5v-18v-72q0 -88 -50 -158t-130 -98q-43 -16 -90 -16q-44 0 -90 16q-80 28 -130.5 98t-50.5 158v35v55q0 59 -15 105.5t-33 73t-33 73t-15 105.5z" />
<glyph unicode="h" d="M10 717q0 60 15 107t33 72.5t33 71.5t15 105v361h181v-359h180v359h180v-361q0 -59 -15 -105t-33 -71.5t-33 -72.5t-15 -107q0 -59 15 -105t33 -72t33 -73t15 -107v-360h-180v360q0 60 -15 107t-33 73t-33 72t-15 105q0 42 8 77.5t16.5 54.5t24.5 48h-180 q-17 -30 -25 -48t-16.5 -54t-8.5 -78q0 -59 15 -105t33.5 -72t33.5 -73t15 -107v-360h-181v360q0 60 -15 107t-33 73t-33 72t-15 105z" />
<glyph unicode="i" horiz-adv-x="296" d="M10 717q0 60 15 107t33 72.5t33 71.5t15 105v361h181v-361q0 -48 -10 -86t-24.5 -64t-28.5 -52.5t-24 -65t-10 -88.5q0 -59 15 -105t33.5 -72t33.5 -73t15 -107v-360h-181v360q0 60 -15 107t-33 73t-33 72t-15 105z" />
<glyph unicode="j" horiz-adv-x="591" d="M41 254v88h180v-88q0 -38 26 -64t64 -26q37 0 63.5 26t26.5 64v104q0 60 -15 107t-33 73t-33 72t-15 105q0 60 15 107t33 73t33 72.5t15 105.5v361h181v-361q0 -49 -10 -87.5t-24 -64.5t-28.5 -52.5t-24.5 -65t-10 -88.5q0 -59 15 -105t33.5 -72t33.5 -73t15 -107v-104 q0 -88 -50.5 -158t-130.5 -98q-41 -14 -90 -14q-52 0 -90 14q-80 28 -130 98t-50 158z" />
<glyph unicode="k" d="M10 717q0 60 15 107t33 72.5t33 71.5t15 105v361h183v-357h90q35 0 60 23.5t28 58.5q2 2 2 6v269h178v-260v-7v-2v-12q0 -68 -34 -112.5t-74 -53.5q19 -19 28.5 -41t7.5 -52.5t-4 -43t-10 -45.5q-10 -42 -10 -88q0 -59 15 -105t33 -72t33 -73t15 -107v-102v-6v-252h-180 v262v60v38q0 60 -15 107t-33 73t-33 72t-15 105q0 62 18 114q11 31 -6.5 47.5t-71.5 16.5h-73q-16 -30 -23.5 -47t-16 -53t-8.5 -78q0 -59 15 -105t33.5 -72t33.5 -73t15 -107v-98v-78v-184h-181v360q0 60 -15 107t-33 73t-33 72t-15 105z" />
<glyph unicode="l" d="M10 717q0 60 15 107t33 72.5t33 71.5t15 105v361h181v-361q0 -48 -10 -86t-24.5 -64t-28.5 -52.5t-24 -65t-10 -88.5q0 -59 15 -105t33.5 -72t33.5 -73t15 -107v-180h360v-180h-541v360q0 60 -15 107t-33 73t-33 72t-15 105z" />
<glyph unicode="m" d="M10 717q0 60 15 107t33 72.5t33 71.5t15 105v45v187v129h177l94 -187l96 187h174v-107v-231v-23q0 -59 -15 -105t-33 -71.5t-33 -72.5t-15 -107q0 -59 15 -105t33 -72t33 -73t15 -107v-360h-180v360q0 60 -15 107t-33 73t-33 72t-15 105q0 56 13 100t29.5 68.5t32 64.5 t19.5 86l-4 -8q-2 -4 -6 -11t-6 -11l-17 -23q-6 -12 -16 -22l-21 -23q-3 -2 -10 -9t-12 -9q-9 -9 -21 -17q-7 -5 -19.5 -12.5t-17.5 -11.5l-34 -21q2 14 6 37l6 39v20q2 6 2 21q0 3 -1 9t-1 9t-1 9.5t-1 9.5q-4 12 -4 16q-2 2 -2 4q-5 -45 -21 -84t-32 -63.5t-29 -68.5 t-13 -99q0 -59 15 -105t33.5 -72t33.5 -73t15 -107v-360h-181v360q0 60 -15 107t-33 73t-33 72t-15 105z" />
<glyph unicode="n" d="M10 717q0 60 15 107t33 72.5t33 71.5t15 105v361h181l180 -361v361h180v-361q0 -59 -15.5 -105t-33.5 -71.5t-33.5 -72.5t-15.5 -107q0 -59 15.5 -105t33.5 -72t33.5 -73t15.5 -107v-360h-180v360q0 56 -13 100t-29.5 69t-32.5 64.5t-21 84.5q-39 62 -53 116 q-12 44 -12 74q0 6 1 12q1 15 1 32q0 20 -2 42q-4 42 -21 82q-4 -46 -20 -86t-33 -64.5t-30.5 -68.5t-13.5 -100q0 -59 15.5 -105t34 -72t34 -73t15.5 -107v-360h-181v360q0 60 -15 107t-33 73t-33 72t-15 105z" />
<glyph unicode="o" horiz-adv-x="659" d="M10 717q0 60 15.5 107t34 72.5t34 71.5t15.5 105v39v47v21q0 87 50 156.5t130 97.5q46 16 90 16t90 -16q79 -28 129.5 -98t50.5 -156v-27v-41v-39q0 -59 -15 -105t-33 -71.5t-33 -72.5t-15 -107q0 -59 15 -105t33 -72t33 -73t15 -107v-104q0 -88 -50.5 -158t-129.5 -98 q-41 -14 -90 -14t-90 14q-80 28 -130 98t-50 158v104q0 60 -15.5 107t-34 73t-34 72t-15.5 105zM190 717q0 -59 15.5 -105t34 -72t34 -73t15.5 -107v-104q0 -38 26 -64t64 -26q37 0 63.5 26t26.5 64v104q0 60 -15 107t-33 73t-33 72t-15 105q0 60 15 107t33 72.5t33 71.5 t15 105v39v41v27q0 37 -26.5 63.5t-63.5 26.5q-38 0 -64 -26.5t-26 -63.5v-27v-41v-39q0 -59 -15.5 -105t-34 -71.5t-34 -72.5t-15.5 -107z" />
<glyph unicode="p" d="M10 717q0 60 15 107t33 72.5t33 71.5t15 105v244v117h271q41 0 90 -17q80 -28 130 -97t50 -157q0 -86 -50.5 -156t-129.5 -98q-46 -16 -90 -16h-139q-24 -40 -36 -78.5t-12 -97.5t15 -105t33.5 -72t33.5 -73t15 -107v-360h-181v152v208q0 60 -15 107t-33 73t-33 72 t-15 105zM287 1073h90q37 0 63.5 26.5t26.5 63.5t-26.5 63.5t-63.5 26.5h-90v-137v-43z" />
<glyph unicode="q" horiz-adv-x="663" d="M10 725q0 61 15.5 108t34 73.5t34 73t15.5 105.5v37v33v23q0 88 50 158t130 98q46 16 92 16q44 0 90 -16q82 -28 132 -97.5t50 -158.5v-27v-29v-37q0 -59 -15 -105.5t-33 -73t-33 -73.5t-15 -108q0 -60 15 -107t33 -73t33 -73t15 -107v-105q0 -90 -49.5 -159.5 t-132.5 -100.5v-104h-182v104q-81 31 -130.5 101t-49.5 159v105q0 60 -15.5 107t-34 73t-34 73t-15.5 107zM193 725q0 -60 15 -107t33 -73t33 -73t15 -107v-105q0 -38 27 -65t65 -27t64 27t26 65v105q0 60 -15 107t-33 73t-33 73t-15 107q0 61 15 108t33 73.5t33 73 t15 105.5v37v29v27q0 38 -26 64t-64 26t-65 -26t-27 -64v-27v-29v-37q0 -59 -15 -105.5t-33 -73t-33 -73.5t-15 -108z" />
<glyph unicode="r" d="M10 717q0 60 15 107t33 72.5t33 71.5t15 105v361h273q41 0 90 -17q76 -27 125.5 -92.5t52.5 -150.5v-7v-14q0 -55 -24 -98.5t-56 -67.5q14 -18 17 -42t0.5 -40.5t-11.5 -51t-12 -48.5q-10 -42 -10 -88q0 -59 15 -105t33 -72t33 -73t15 -107v-47v-313h-180v313v47 q0 60 -15 107t-33 73t-33 72t-15 105q0 62 18 114q5 13 5 23q0 43 -83 43h-73q-17 -33 -24 -49t-15.5 -52.5t-8.5 -78.5q0 -59 15 -105t33.5 -72t33.5 -73t15 -107v-84v-92v-184h-181v360q0 60 -15 107t-33 73t-33 72t-15 105zM289 1077h90q35 0 60 23.5t28 58.5q0 1 1 3 t1 3v2q0 1 -1 2t-1 2q-3 35 -28 58.5t-60 23.5h-90v-176z" />
<glyph unicode="s" horiz-adv-x="595" d="M12 870q-1 8 -1 16q0 33 16 75q18 52 18 110v109q0 86 50.5 156t129.5 98q43 16 90 16h2q87 -1 155.5 -51t96.5 -129q17 -49 17 -90v-93h-180v93q0 37 -27 63.5t-64 26.5q-38 0 -64 -26.5t-26 -63.5v-105v-2q0 -32 -8 -78q-2 -10 -8.5 -32t-8.5 -34t1.5 -32t15.5 -41 q1 -2 10.5 -18.5t11.5 -19.5t12.5 -19t16 -22.5t19 -23t25.5 -27.5t31 -29.5t39.5 -35.5t48 -39.5t58.5 -46.5q48 -38 72.5 -87.5t24.5 -127.5v-36v-68q0 -44 -17 -90q-28 -79 -97 -129.5t-155 -50.5h-2q-52 0 -90 14q-80 28 -130 98t-50 158v86h180v-86q0 -38 26 -64 t64 -26q37 0 64 26t27 64v104q0 35 -9 80q-6 24 -57 64t-123.5 98.5t-114.5 114.5q-77 97 -90 153z" />
<glyph unicode="t" horiz-adv-x="591" d="M31 1253v181h540v-181h-180v-180q0 -59 -15 -105t-33 -71.5t-33 -72.5t-15 -107q0 -59 15 -105t33 -72t33 -73t15 -107v-360h-180v360q0 60 -15 107t-33 73t-33 72t-15 105q0 60 15 107t33 72.5t33 71.5t15 105v180h-180z" />
<glyph unicode="u" d="M10 717q0 60 15 107t33 72.5t33 71.5t15 105v361h181v-361q0 -48 -10 -86t-24.5 -64t-28.5 -52.5t-24 -65t-10 -88.5q0 -59 15 -105.5t33.5 -73t33.5 -73t15 -105.5v-106q0 -37 26.5 -63.5t63.5 -26.5q38 0 64 26.5t26 63.5v106q0 59 -15 105.5t-33 73t-33 73t-15 105.5 q0 60 15 107t33 72.5t33 71.5t15 105v361h180v-361q0 -59 -15 -105t-33 -71.5t-33 -72.5t-15 -107q0 -59 15 -105.5t33 -73t33 -73t15 -105.5v-106q0 -87 -50 -156.5t-130 -97.5q-46 -16 -90 -16t-90 16q-79 28 -130 98t-51 156v106q0 59 -15 105.5t-33 73t-33 73t-15 105.5 z" />
<glyph unicode="v" d="M10 717q0 60 15 107t33 72.5t33 71.5t15 105v232v129h181v-361q0 -48 -10 -86t-24.5 -64t-28.5 -52.5t-24 -65t-10 -88.5q0 -56 13.5 -100t30 -69t32.5 -65t19 -88l92 -182l90 176q-3 50 -19 92t-33 67t-30.5 69t-13.5 100q0 60 15 107t33 72.5t33 71.5t15 105v361h180 v-361q0 -59 -15 -105t-33 -71.5t-33 -72.5t-15 -107q0 -59 15 -105t33 -72.5t33 -73.5t15 -108l-182 -356v-2h-176v2l-183 358q0 60 -15 107t-33 73t-33 72t-15 105z" />
<glyph unicode="w" d="M10 717q0 59 15 105.5t33 72.5t33 72.5t15 105.5v361h181v-361q0 -59 -15 -105.5t-33.5 -72.5t-33.5 -72.5t-15 -105.5q0 -55 13 -99t29 -69t32 -64t21 -84q0 3 2 5q0 4 4 16q0 3 1 9t1 9t1 10t1 11q0 12 -2 20v21q-1 3 -3 17t-3 20l-6 36q14 -8 34 -20l37 -25 q2 -1 6.5 -3.5t8 -5t6.5 -5.5q8 -6 22 -20q2 -2 6 -6.5t7.5 -8t7.5 -6.5q12 -16 16 -24l17 -23q2 -4 6 -11t6 -11q4 -4 4 -9q-4 46 -19.5 86t-32 64.5t-29.5 69t-13 100.5q0 59 15 105.5t33 72.5t33 72.5t15 105.5v361h180v-361q0 -59 -15 -105.5t-33 -72.5t-33 -72.5 t-15 -105.5q0 -60 15 -107t33 -73t33 -72t15 -105v-22v-232v-106h-174l-96 188l-94 -188h-177v131v184v45q0 59 -15 105t-33 72t-33 73t-15 107z" />
<glyph unicode="x" d="M10 717q0 104 42 178t104 92q-17 5 -33.5 30.5t-16.5 55.5v90v2v2v267h181v-269q0 -37 26.5 -62.5t63.5 -25.5t63.5 26t26.5 64v267h180v-267q0 -48 -16 -94q-18 -48 -66 -86h2q14 -18 17 -42.5t0.5 -39.5t-12.5 -52t-13 -48q-10 -63 -10 -88q0 -59 15.5 -105t33.5 -72 t33.5 -73t15.5 -107v-59v-301h-180v301v39v20q0 60 -15 107t-33 73t-33 72t-15 105q0 68 16 114q5 13 5 23q0 36 -64 41q-50 0 -80.5 -19t-40.5 -47q-17 -44 -17 -112q0 -59 15 -105t33.5 -72t33.5 -73t15 -107v-360h-181v360q0 60 -15 107t-33 73t-33 72t-15 105z" />
<glyph unicode="y" horiz-adv-x="602" d="M51 1167v267h180v-267q0 -38 27 -64t64 -26t63.5 26t26.5 64v267h180v-267q0 -45 -17 -94q-21 -55 -77.5 -98.5t-124.5 -63.5q-21 -35 -29.5 -52t-18.5 -56t-10 -86q0 -59 15 -105t33.5 -72t33.5 -73t15 -107v-360h-181v360q0 60 -15 107t-33 73t-33 72t-15 105 q0 18 1.5 35.5t3.5 30t6.5 27.5t7 22.5t9.5 22t9 19t11 19.5t10 18q-76 42 -109 95.5t-33 160.5z" />
<glyph unicode="z" horiz-adv-x="602" d="M51 0v180l60 180q16 48 17 98v12q0 42 -6 72q-7 32 -7 75q1 3 1 7q0 48 15 93q18 57 60 113.5t86 117t65 125.5l59 180h-350v181h541v-181h-2l-58 -180l-12 -35q-26 -62 -101.5 -158.5t-96.5 -162.5q-14 -41 -16 -85v-17q0 -33 5 -59q5 -32 7 -76q0 -6 1 -13 q0 -37 -8 -72l-12 -35l-57 -180h350v-180h-350h-191z" />
<glyph unicode="&#xa3;" horiz-adv-x="747" d="M10 717q0 48 10 90h91q9 37 32.5 78t39.5 85t16 107v105q0 87 49.5 155.5t128.5 96.5l2 2q38 14 90 14q49 0 90 -14q79 -28 128.5 -97.5t49.5 -156.5v-88h-178v88q0 37 -26.5 63.5t-63.5 26.5q-38 0 -64 -26.5t-26 -63.5v-105v-4q0 -62 -15.5 -106t-38.5 -84.5t-32 -75.5 h196q-10 -42 -10 -90q0 -47 13 -88h-199q10 -33 33 -74t38 -84.5t15 -105.5v-17v-168h358v-180h-538v360q0 63 -15.5 107.5t-38.5 85.5t-32 76h-93q-10 42 -10 88z" />
<glyph unicode="&#xa5;" d="M10 668h185q-5 40 -5 49q0 29 7 61h-185q5 36 17.5 65.5t30 61t26.5 53.5h94q-37 33 -54 81.5t-17 127.5v267h180v-267q0 -38 25.5 -64t62.5 -26q38 0 64 26t26 64v267h180v-267q0 -55 -16 -94q-22 -63 -101 -115h95q-6 -16 -36 -74t-38 -106h-176q-4 -36 -4 -61 q0 -17 4 -49h176q4 -38 15 -67.5t29.5 -63t25.5 -50.5h-177q23 -51 23 -127v-360h-178v360q0 72 -25 127h-184q-7 17 -25.5 50.5t-29.5 63t-15 67.5z" />
<glyph unicode="&#xad;" horiz-adv-x="612" d="M0 717q0 48 10 90h541q-10 -42 -10 -90t10 -90h-541q-10 42 -10 90z" />
<glyph unicode="&#xc0;" horiz-adv-x="659" d="M10 719q0 60 15 107t33 73t33 72.5t15 105.5v103q0 88 50.5 158t130.5 98q46 16 90 16t90 -16q81 -28 131.5 -98t50.5 -158v-103q0 -59 -15.5 -105.5t-33.5 -72.5t-33.5 -73t-15.5 -107q0 -59 15.5 -105.5t33.5 -73t33.5 -73.5t15.5 -107v-360h-182v358h-180v-358h-181 v63v297q0 60 -15 107t-33 73.5t-33 73t-15 105.5zM184 1710l117 -190h152l-117 190h-152zM190 719q0 -42 8.5 -78t16.5 -54t25 -48h182q-25 42 -38 80.5t-13 99.5q0 60 15 107t33 73t33 72.5t15 105.5v88q0 38 -26 64t-64 26q-37 0 -63.5 -26t-26.5 -64v-88q0 -49 -10 -87.5 t-24.5 -64.5t-28.5 -52.5t-24 -65t-10 -88.5z" />
<glyph unicode="&#xc1;" horiz-adv-x="659" d="M10 719q0 60 15 107t33 73t33 72.5t15 105.5v103q0 88 50.5 158t130.5 98q46 16 90 16t90 -16q81 -28 131.5 -98t50.5 -158v-103q0 -59 -15.5 -105.5t-33.5 -72.5t-33.5 -73t-15.5 -107q0 -59 15.5 -105.5t33.5 -73t33.5 -73.5t15.5 -107v-360h-182v358h-180v-358h-181 v63v297q0 60 -15 107t-33 73.5t-33 73t-15 105.5zM190 719q0 -42 8.5 -78t16.5 -54t25 -48h182q-25 42 -38 80.5t-13 99.5q0 60 15 107t33 73t33 72.5t15 105.5v88q0 38 -26 64t-64 26q-37 0 -63.5 -26t-26.5 -64v-88q0 -49 -10 -87.5t-24.5 -64.5t-28.5 -52.5t-24 -65 t-10 -88.5zM303 1520l117 190h151l-116 -190h-152z" />
<glyph unicode="&#xc2;" horiz-adv-x="659" d="M10 719q0 60 15 107t33 73t33 72.5t15 105.5v103q0 88 50.5 158t130.5 98q46 16 90 16q47 0 90 -16q81 -28 131.5 -98t50.5 -158v-103q0 -59 -15.5 -105.5t-33.5 -72.5t-33.5 -73t-15.5 -107q0 -59 15.5 -105.5t33.5 -73t33.5 -73.5t15.5 -107v-360h-182v358h-180v-358 h-181v63v297q0 60 -15 107t-33 73.5t-33 73t-15 105.5zM184 1520l117 190h152l116 -190h-151l-41 65l-41 -65h-152zM190 719q0 -42 8.5 -78t16.5 -54t25 -48h182q-17 31 -25.5 48t-17 53.5t-8.5 78.5q0 60 15 107t33 73t33 72.5t15 105.5v88q0 38 -26 64t-64 26 q-37 0 -63.5 -26t-26.5 -64v-88q0 -49 -10 -87.5t-24.5 -64.5t-28.5 -52.5t-24 -65t-10 -88.5z" />
<glyph unicode="&#xc4;" horiz-adv-x="659" d="M10 719q0 60 15 107t33 73t33 72.5t15 105.5v103q0 88 50.5 158t130.5 98q46 16 90 16t90 -16q81 -28 131.5 -98t50.5 -158v-103q0 -59 -15.5 -105.5t-33.5 -72.5t-33.5 -73t-15.5 -107q0 -59 15.5 -105.5t33.5 -73t33.5 -73.5t15.5 -107v-360h-182v358h-180v-358h-181 v63v297q0 60 -15 107t-33 73.5t-33 73t-15 105.5zM178 1513v152h152v-152h-152zM190 719q0 -42 8.5 -78t16.5 -54t25 -48h182q-25 42 -38 80.5t-13 99.5q0 60 15 107t33 73t33 72.5t15 105.5v88q0 38 -26 64t-64 26q-37 0 -63.5 -26t-26.5 -64v-88q0 -49 -10 -87.5 t-24.5 -64.5t-28.5 -52.5t-24 -65t-10 -88.5zM424 1513v152h151v-152h-151z" />
<glyph unicode="&#xc8;" d="M10 717q0 60 15 107t33 72.5t33 71.5t15 105v230v131h541v-181h-360v-178h180v-2q0 -59 -12.5 -97t-36.5 -79h-178q-17 -30 -25 -48t-16.5 -54t-8.5 -78q0 -59 15 -105t33.5 -72t33.5 -73t15 -107v-180h360v-180h-541v168v192q0 60 -15 107t-33 73t-33 72t-15 105z M184 1704l117 -191h152l-117 191h-152z" />
<glyph unicode="&#xc9;" d="M10 717q0 60 15.5 107t34 72.5t34 71.5t15.5 105v230v131h538v-181h-358v-178h178v-2q0 -59 -12.5 -97t-36.5 -79h-178q-17 -30 -25 -48t-16.5 -54t-8.5 -78q0 -59 15.5 -105t34 -72t34 -73t15.5 -107v-180h358v-180h-538v168v192q0 60 -15.5 107t-34 73t-34 72 t-15.5 105zM303 1513l117 191h149l-114 -191h-152z" />
<glyph unicode="&#xca;" d="M10 717q0 60 15 107t33 72.5t33 71.5t15 105v230v131h541v-181h-360v-178h178v-2q0 -95 -47 -176h-178q-17 -30 -25 -48t-16.5 -54t-8.5 -78q0 -59 15 -105t33.5 -72t33.5 -73t15 -107v-180h360v-180h-541v168v192q0 60 -15 107t-33 73t-33 72t-15 105zM184 1520l117 190 h152l116 -190h-151l-41 65l-41 -65h-152z" />
<glyph unicode="&#xcb;" d="M10 717q0 60 15 107t33 72.5t33 71.5t15 105v230v131h541v-181h-360v-178h178v-2q0 -95 -47 -176h-178q-17 -30 -25 -48t-16.5 -54t-8.5 -78q0 -59 15 -105t33.5 -72t33.5 -73t15 -107v-180h360v-180h-541v168v192q0 60 -15 107t-33 73t-33 72t-15 105zM178 1513v152h152 v-152h-152zM424 1513v152h151v-152h-151z" />
<glyph unicode="&#xcc;" horiz-adv-x="303" d="M10 1706l117 -190h152l-117 190h-152zM16 717q0 50 10 88.5t24 65t28.5 52.5t24.5 64.5t10 87.5v361h180v-361q0 -59 -15 -105.5t-33 -72.5t-33 -73t-15 -107q0 -59 15 -105t33 -72t33 -73t15 -107v-360h-180v360q0 60 -15 107t-33.5 73t-33.5 72t-15 105z" />
<glyph unicode="&#xcd;" horiz-adv-x="380" d="M10 717q0 60 15 107t33 73t33 72.5t15 105.5v361h181v-361q0 -49 -10 -87.5t-24.5 -64.5t-28.5 -52.5t-24 -65t-10 -88.5q0 -59 15 -105t33.5 -72t33.5 -73t15 -107v-360h-181v360q0 60 -15 107t-33 73t-33 72t-15 105zM123 1516l117 190h151l-117 -190h-151z" />
<glyph unicode="&#xce;" horiz-adv-x="405" d="M10 1516l117 190h152l116 -190h-151l-41 67l-41 -67h-152zM16 717q0 50 10 88.5t24 65t28.5 52.5t24.5 64.5t10 87.5v361h180v-361q0 -59 -15 -105.5t-33 -72.5t-33 -73t-15 -107q0 -59 15 -105t33 -72t33 -73t15 -107v-360h-180v360q0 60 -15 107t-33.5 73t-33.5 72 t-15 105z" />
<glyph unicode="&#xcf;" horiz-adv-x="405" d="M10 1505v150h150v-150h-150zM23 713q0 59 15 105.5t33 72.5t33 71.5t15 104.5v356h180v-356q0 -59 -15 -104.5t-33 -71.5t-33 -72.5t-15 -105.5t15 -105t33 -72t33 -72.5t15 -105.5v-358h-180v358q0 59 -15 105.5t-33 72.5t-33 72t-15 105zM256 1505v150h150v-150h-150z " />
<glyph unicode="&#xd2;" horiz-adv-x="659" d="M10 717q0 60 15.5 107t34 72.5t34 71.5t15.5 105v39v47v21q0 87 50 156.5t130 97.5q46 16 90 16t90 -16q79 -28 129.5 -98t50.5 -156v-27v-41v-39q0 -59 -15 -105t-33 -71.5t-33 -72.5t-15 -107q0 -59 15 -105t33 -72t33 -73t15 -107v-104q0 -88 -50.5 -158t-129.5 -98 q-41 -14 -90 -14t-90 14q-80 28 -130 98t-50 158v104q0 60 -15.5 107t-34 73t-34 72t-15.5 105zM184 1710h152l117 -190h-152zM190 717q0 -59 15.5 -105t34 -72t34 -73t15.5 -107v-104q0 -38 26 -64t64 -26q37 0 63.5 26t26.5 64v104q0 60 -15 107t-33 73t-33 72t-15 105 q0 60 15 107t33 72.5t33 71.5t15 105v39v41v27q0 37 -26.5 63.5t-63.5 26.5q-38 0 -64 -26.5t-26 -63.5v-27v-41v-39q0 -59 -15.5 -105t-34 -71.5t-34 -72.5t-15.5 -107z" />
<glyph unicode="&#xd3;" horiz-adv-x="659" d="M10 717q0 60 15.5 107t34 72.5t34 71.5t15.5 105v39v47v21q0 87 50 156.5t130 97.5q46 16 90 16t90 -16q79 -28 129.5 -98t50.5 -156v-27v-41v-39q0 -59 -15 -105t-33 -71.5t-33 -72.5t-15 -107q0 -59 15 -105t33 -72t33 -73t15 -107v-104q0 -88 -50.5 -158t-129.5 -98 q-41 -14 -90 -14t-90 14q-80 28 -130 98t-50 158v104q0 60 -15.5 107t-34 73t-34 72t-15.5 105zM190 717q0 -59 15.5 -105t34 -72t34 -73t15.5 -107v-104q0 -38 26 -64t64 -26q37 0 63.5 26t26.5 64v104q0 60 -15 107t-33 73t-33 72t-15 105q0 60 15 107t33 72.5t33 71.5 t15 105v39v41v27q0 37 -26.5 63.5t-63.5 26.5q-38 0 -64 -26.5t-26 -63.5v-27v-41v-39q0 -59 -15.5 -105t-34 -71.5t-34 -72.5t-15.5 -107zM303 1520l117 190h151l-116 -190h-152z" />
<glyph unicode="&#xd4;" horiz-adv-x="659" d="M10 717q0 60 15.5 107t34 72.5t34 71.5t15.5 105v39v47v21q0 87 50 156.5t130 97.5q46 16 90 16t90 -16q79 -28 129.5 -98t50.5 -156v-27v-41v-39q0 -59 -15 -105t-33 -71.5t-33 -72.5t-15 -107q0 -59 15 -105t33 -72t33 -73t15 -107v-104q0 -88 -50.5 -158t-129.5 -98 q-41 -14 -90 -14t-90 14q-80 28 -130 98t-50 158v104q0 60 -15.5 107t-34 73t-34 72t-15.5 105zM184 1520l117 190h152l116 -190h-151l-41 65l-41 -65h-152zM190 717q0 -59 15.5 -105t34 -72t34 -73t15.5 -107v-104q0 -38 26 -64t64 -26q37 0 63.5 26t26.5 64v104 q0 60 -15 107t-33 73t-33 72t-15 105q0 60 15 107t33 72.5t33 71.5t15 105v39v41v27q0 37 -26.5 63.5t-63.5 26.5q-38 0 -64 -26.5t-26 -63.5v-27v-41v-39q0 -59 -15.5 -105t-34 -71.5t-34 -72.5t-15.5 -107z" />
<glyph unicode="&#xd6;" horiz-adv-x="659" d="M10 717q0 60 15.5 107t34 72.5t34 71.5t15.5 105v39v47v21q0 87 50 156.5t130 97.5q46 16 90 16t90 -16q79 -28 129.5 -98t50.5 -156v-27v-41v-39q0 -59 -15 -105t-33 -71.5t-33 -72.5t-15 -107q0 -59 15 -105t33 -72t33 -73t15 -107v-104q0 -88 -50.5 -158t-129.5 -98 q-41 -14 -90 -14t-90 14q-80 28 -130 98t-50 158v104q0 60 -15.5 107t-34 73t-34 72t-15.5 105zM178 1513v152h152v-152h-152zM190 717q0 -59 15.5 -105t34 -72t34 -73t15.5 -107v-104q0 -38 26 -64t64 -26q37 0 63.5 26t26.5 64v104q0 60 -15 107t-33 73t-33 72t-15 105 q0 60 15 107t33 72.5t33 71.5t15 105v39v41v27q0 37 -26.5 63.5t-63.5 26.5q-38 0 -64 -26.5t-26 -63.5v-27v-41v-39q0 -59 -15.5 -105t-34 -71.5t-34 -72.5t-15.5 -107zM424 1513v152h151v-152h-151z" />
<glyph unicode="&#xd9;" d="M10 717q0 60 15 107t33 72.5t33 71.5t15 105v361h181v-361q0 -48 -10 -86t-24.5 -64t-28.5 -52.5t-24 -65t-10 -88.5q0 -59 15 -105.5t33.5 -73t33.5 -73t15 -105.5v-106q0 -37 26.5 -63.5t63.5 -26.5q38 0 64 26.5t26 63.5v106q0 59 -15 105.5t-33 73t-33 73t-15 105.5 q0 60 15 107t33 72.5t33 71.5t15 105v361h180v-361q0 -59 -15 -105t-33 -71.5t-33 -72.5t-15 -107q0 -59 15 -105.5t33 -73t33 -73t15 -105.5v-106q0 -87 -50 -156.5t-130 -97.5q-46 -16 -90 -16t-90 16q-79 28 -130 98t-51 156v106q0 59 -15 105.5t-33 73t-33 73t-15 105.5 zM184 1704l117 -191h152l-117 191h-152z" />
<glyph unicode="&#xda;" d="M10 717q0 60 15 107t33 72.5t33 71.5t15 105v361h181v-361q0 -48 -10 -86t-24.5 -64t-28.5 -52.5t-24 -65t-10 -88.5q0 -59 15 -105.5t33.5 -73t33.5 -73t15 -105.5v-106q0 -37 26.5 -63.5t63.5 -26.5q38 0 64 26.5t26 63.5v106q0 59 -15 105.5t-33 73t-33 73t-15 105.5 q0 60 15 107t33 72.5t33 71.5t15 105v361h180v-361q0 -59 -15 -105t-33 -71.5t-33 -72.5t-15 -107q0 -59 15 -105.5t33 -73t33 -73t15 -105.5v-106q0 -87 -50 -156.5t-130 -97.5q-46 -16 -90 -16t-90 16q-79 28 -130 98t-51 156v106q0 59 -15 105.5t-33 73t-33 73t-15 105.5 zM303 1513l117 191h149l-114 -191h-152z" />
<glyph unicode="&#xdb;" d="M10 717q0 60 15 107t33 72.5t33 71.5t15 105v361h181v-361q0 -48 -10 -86t-24.5 -64t-28.5 -52.5t-24 -65t-10 -88.5q0 -59 15 -105.5t33.5 -73t33.5 -73t15 -105.5v-106q0 -37 26.5 -63.5t63.5 -26.5q38 0 64 26.5t26 63.5v106q0 59 -15 105.5t-33 73t-33 73t-15 105.5 q0 60 15 107t33 72.5t33 71.5t15 105v361h180v-361q0 -59 -15 -105t-33 -71.5t-33 -72.5t-15 -107q0 -59 15 -105.5t33 -73t33 -73t15 -105.5v-106q0 -87 -50 -156.5t-130 -97.5q-46 -16 -90 -16t-90 16q-79 28 -130 98t-51 156v106q0 59 -15 105.5t-33 73t-33 73t-15 105.5 zM184 1520l117 190h152l116 -190h-151l-41 65l-41 -65h-152z" />
<glyph unicode="&#xdc;" d="M10 717q0 60 15 107t33 72.5t33 71.5t15 105v361h181v-361q0 -48 -10 -86t-24.5 -64t-28.5 -52.5t-24 -65t-10 -88.5q0 -59 15 -105.5t33.5 -73t33.5 -73t15 -105.5v-106q0 -37 26.5 -63.5t63.5 -26.5q38 0 64 26.5t26 63.5v106q0 59 -15 105.5t-33 73t-33 73t-15 105.5 q0 60 15 107t33 72.5t33 71.5t15 105v361h180v-361q0 -59 -15 -105t-33 -71.5t-33 -72.5t-15 -107q0 -59 15 -105.5t33 -73t33 -73t15 -105.5v-106q0 -87 -50 -156.5t-130 -97.5q-46 -16 -90 -16t-90 16q-79 28 -130 98t-51 156v106q0 59 -15 105.5t-33 73t-33 73t-15 105.5 zM178 1513v152h152v-152h-152zM424 1513v152h151v-152h-151z" />
<glyph unicode="&#xe0;" horiz-adv-x="659" d="M10 719q0 60 15 107t33 73t33 72.5t15 105.5v103q0 88 50.5 158t130.5 98q46 16 90 16t90 -16q81 -28 131.5 -98t50.5 -158v-103q0 -59 -15.5 -105.5t-33.5 -72.5t-33.5 -73t-15.5 -107q0 -59 15.5 -105.5t33.5 -73t33.5 -73.5t15.5 -107v-360h-182v358h-180v-358h-181 v63v297q0 60 -15 107t-33 73.5t-33 73t-15 105.5zM184 1710l117 -190h152l-117 190h-152zM190 719q0 -42 8.5 -78t16.5 -54t25 -48h182q-25 42 -38 80.5t-13 99.5q0 60 15 107t33 73t33 72.5t15 105.5v88q0 38 -26 64t-64 26q-37 0 -63.5 -26t-26.5 -64v-88q0 -49 -10 -87.5 t-24.5 -64.5t-28.5 -52.5t-24 -65t-10 -88.5z" />
<glyph unicode="&#xe1;" horiz-adv-x="659" d="M10 719q0 60 15 107t33 73t33 72.5t15 105.5v103q0 88 50.5 158t130.5 98q46 16 90 16t90 -16q81 -28 131.5 -98t50.5 -158v-103q0 -59 -15.5 -105.5t-33.5 -72.5t-33.5 -73t-15.5 -107q0 -59 15.5 -105.5t33.5 -73t33.5 -73.5t15.5 -107v-360h-182v358h-180v-358h-181 v63v297q0 60 -15 107t-33 73.5t-33 73t-15 105.5zM190 719q0 -42 8.5 -78t16.5 -54t25 -48h182q-25 42 -38 80.5t-13 99.5q0 60 15 107t33 73t33 72.5t15 105.5v88q0 38 -26 64t-64 26q-37 0 -63.5 -26t-26.5 -64v-88q0 -49 -10 -87.5t-24.5 -64.5t-28.5 -52.5t-24 -65 t-10 -88.5zM303 1520l117 190h151l-116 -190h-152z" />
<glyph unicode="&#xe2;" horiz-adv-x="659" d="M10 719q0 60 15 107t33 73t33 72.5t15 105.5v103q0 88 50.5 158t130.5 98q46 16 90 16q47 0 90 -16q81 -28 131.5 -98t50.5 -158v-103q0 -59 -15.5 -105.5t-33.5 -72.5t-33.5 -73t-15.5 -107q0 -59 15.5 -105.5t33.5 -73t33.5 -73.5t15.5 -107v-360h-182v358h-180v-358 h-181v63v297q0 60 -15 107t-33 73.5t-33 73t-15 105.5zM184 1520l117 190h152l116 -190h-151l-41 65l-41 -65h-152zM190 719q0 -42 8.5 -78t16.5 -54t25 -48h182q-17 31 -25.5 48t-17 53.5t-8.5 78.5q0 60 15 107t33 73t33 72.5t15 105.5v88q0 38 -26 64t-64 26 q-37 0 -63.5 -26t-26.5 -64v-88q0 -49 -10 -87.5t-24.5 -64.5t-28.5 -52.5t-24 -65t-10 -88.5z" />
<glyph unicode="&#xe4;" horiz-adv-x="659" d="M10 719q0 60 15 107t33 73t33 72.5t15 105.5v103q0 88 50.5 158t130.5 98q46 16 90 16t90 -16q81 -28 131.5 -98t50.5 -158v-103q0 -59 -15.5 -105.5t-33.5 -72.5t-33.5 -73t-15.5 -107q0 -59 15.5 -105.5t33.5 -73t33.5 -73.5t15.5 -107v-360h-182v358h-180v-358h-181 v63v297q0 60 -15 107t-33 73.5t-33 73t-15 105.5zM178 1513v152h152v-152h-152zM190 719q0 -42 8.5 -78t16.5 -54t25 -48h182q-25 42 -38 80.5t-13 99.5q0 60 15 107t33 73t33 72.5t15 105.5v88q0 38 -26 64t-64 26q-37 0 -63.5 -26t-26.5 -64v-88q0 -49 -10 -87.5 t-24.5 -64.5t-28.5 -52.5t-24 -65t-10 -88.5zM424 1513v152h151v-152h-151z" />
<glyph unicode="&#xe8;" d="M10 717q0 60 15 107t33 72.5t33 71.5t15 105v230v131h541v-181h-360v-178h180v-2q0 -59 -12.5 -97t-36.5 -79h-178q-17 -30 -25 -48t-16.5 -54t-8.5 -78q0 -59 15 -105t33.5 -72t33.5 -73t15 -107v-180h360v-180h-541v168v192q0 60 -15 107t-33 73t-33 72t-15 105z M184 1704l117 -191h152l-117 191h-152z" />
<glyph unicode="&#xe9;" d="M10 717q0 60 15.5 107t34 72.5t34 71.5t15.5 105v230v131h538v-181h-358v-178h178v-2q0 -59 -12.5 -97t-36.5 -79h-178q-17 -30 -25 -48t-16.5 -54t-8.5 -78q0 -59 15.5 -105t34 -72t34 -73t15.5 -107v-180h358v-180h-538v168v192q0 60 -15.5 107t-34 73t-34 72 t-15.5 105zM303 1513l117 191h149l-114 -191h-152z" />
<glyph unicode="&#xea;" d="M10 717q0 60 15 107t33 72.5t33 71.5t15 105v230v131h541v-181h-360v-178h178v-2q0 -95 -47 -176h-178q-17 -30 -25 -48t-16.5 -54t-8.5 -78q0 -59 15 -105t33.5 -72t33.5 -73t15 -107v-180h360v-180h-541v168v192q0 60 -15 107t-33 73t-33 72t-15 105zM184 1520l117 190 h152l116 -190h-151l-41 65l-41 -65h-152z" />
<glyph unicode="&#xeb;" d="M10 717q0 60 15 107t33 72.5t33 71.5t15 105v230v131h541v-181h-360v-178h178v-2q0 -95 -47 -176h-178q-17 -30 -25 -48t-16.5 -54t-8.5 -78q0 -59 15 -105t33.5 -72t33.5 -73t15 -107v-180h360v-180h-541v168v192q0 60 -15 107t-33 73t-33 72t-15 105zM178 1513v152h152 v-152h-152zM424 1513v152h151v-152h-151z" />
<glyph unicode="&#xec;" horiz-adv-x="303" d="M10 1706l117 -190h152l-117 190h-152zM16 717q0 50 10 88.5t24 65t28.5 52.5t24.5 64.5t10 87.5v361h180v-361q0 -59 -15 -105.5t-33 -72.5t-33 -73t-15 -107q0 -59 15 -105t33 -72t33 -73t15 -107v-360h-180v360q0 60 -15 107t-33.5 73t-33.5 72t-15 105z" />
<glyph unicode="&#xed;" horiz-adv-x="380" d="M10 717q0 60 15 107t33 73t33 72.5t15 105.5v361h181v-361q0 -49 -10 -87.5t-24.5 -64.5t-28.5 -52.5t-24 -65t-10 -88.5q0 -59 15 -105t33.5 -72t33.5 -73t15 -107v-360h-181v360q0 60 -15 107t-33 73t-33 72t-15 105zM123 1516l117 190h151l-117 -190h-151z" />
<glyph unicode="&#xee;" horiz-adv-x="405" d="M10 1516l117 190h152l116 -190h-151l-41 67l-41 -67h-152zM16 717q0 50 10 88.5t24 65t28.5 52.5t24.5 64.5t10 87.5v361h180v-361q0 -59 -15 -105.5t-33 -72.5t-33 -73t-15 -107q0 -59 15 -105t33 -72t33 -73t15 -107v-360h-180v360q0 60 -15 107t-33.5 73t-33.5 72 t-15 105z" />
<glyph unicode="&#xef;" horiz-adv-x="405" d="M10 1505v150h150v-150h-150zM23 713q0 59 15 105.5t33 72.5t33 71.5t15 104.5v356h180v-356q0 -59 -15 -104.5t-33 -71.5t-33 -72.5t-15 -105.5t15 -105t33 -72t33 -72.5t15 -105.5v-358h-180v358q0 59 -15 105.5t-33 72.5t-33 72t-15 105zM256 1505v150h150v-150h-150z " />
<glyph unicode="&#xf2;" horiz-adv-x="659" d="M10 717q0 60 15.5 107t34 72.5t34 71.5t15.5 105v39v47v21q0 87 50 156.5t130 97.5q46 16 90 16t90 -16q79 -28 129.5 -98t50.5 -156v-27v-41v-39q0 -59 -15 -105t-33 -71.5t-33 -72.5t-15 -107q0 -59 15 -105t33 -72t33 -73t15 -107v-104q0 -88 -50.5 -158t-129.5 -98 q-41 -14 -90 -14t-90 14q-80 28 -130 98t-50 158v104q0 60 -15.5 107t-34 73t-34 72t-15.5 105zM184 1710h152l117 -190h-152zM190 717q0 -59 15.5 -105t34 -72t34 -73t15.5 -107v-104q0 -38 26 -64t64 -26q37 0 63.5 26t26.5 64v104q0 60 -15 107t-33 73t-33 72t-15 105 q0 60 15 107t33 72.5t33 71.5t15 105v39v41v27q0 37 -26.5 63.5t-63.5 26.5q-38 0 -64 -26.5t-26 -63.5v-27v-41v-39q0 -59 -15.5 -105t-34 -71.5t-34 -72.5t-15.5 -107z" />
<glyph unicode="&#xf3;" horiz-adv-x="659" d="M10 717q0 60 15.5 107t34 72.5t34 71.5t15.5 105v39v47v21q0 87 50 156.5t130 97.5q46 16 90 16t90 -16q79 -28 129.5 -98t50.5 -156v-27v-41v-39q0 -59 -15 -105t-33 -71.5t-33 -72.5t-15 -107q0 -59 15 -105t33 -72t33 -73t15 -107v-104q0 -88 -50.5 -158t-129.5 -98 q-41 -14 -90 -14t-90 14q-80 28 -130 98t-50 158v104q0 60 -15.5 107t-34 73t-34 72t-15.5 105zM190 717q0 -59 15.5 -105t34 -72t34 -73t15.5 -107v-104q0 -38 26 -64t64 -26q37 0 63.5 26t26.5 64v104q0 60 -15 107t-33 73t-33 72t-15 105q0 60 15 107t33 72.5t33 71.5 t15 105v39v41v27q0 37 -26.5 63.5t-63.5 26.5q-38 0 -64 -26.5t-26 -63.5v-27v-41v-39q0 -59 -15.5 -105t-34 -71.5t-34 -72.5t-15.5 -107zM303 1520l117 190h151l-116 -190h-152z" />
<glyph unicode="&#xf4;" horiz-adv-x="659" d="M10 717q0 60 15.5 107t34 72.5t34 71.5t15.5 105v39v47v21q0 87 50 156.5t130 97.5q46 16 90 16t90 -16q79 -28 129.5 -98t50.5 -156v-27v-41v-39q0 -59 -15 -105t-33 -71.5t-33 -72.5t-15 -107q0 -59 15 -105t33 -72t33 -73t15 -107v-104q0 -88 -50.5 -158t-129.5 -98 q-41 -14 -90 -14t-90 14q-80 28 -130 98t-50 158v104q0 60 -15.5 107t-34 73t-34 72t-15.5 105zM184 1520l117 190h152l116 -190h-151l-41 65l-41 -65h-152zM190 717q0 -59 15.5 -105t34 -72t34 -73t15.5 -107v-104q0 -38 26 -64t64 -26q37 0 63.5 26t26.5 64v104 q0 60 -15 107t-33 73t-33 72t-15 105q0 60 15 107t33 72.5t33 71.5t15 105v39v41v27q0 37 -26.5 63.5t-63.5 26.5q-38 0 -64 -26.5t-26 -63.5v-27v-41v-39q0 -59 -15.5 -105t-34 -71.5t-34 -72.5t-15.5 -107z" />
<glyph unicode="&#xf6;" horiz-adv-x="659" d="M10 717q0 60 15.5 107t34 72.5t34 71.5t15.5 105v39v47v21q0 87 50 156.5t130 97.5q46 16 90 16t90 -16q79 -28 129.5 -98t50.5 -156v-27v-41v-39q0 -59 -15 -105t-33 -71.5t-33 -72.5t-15 -107q0 -59 15 -105t33 -72t33 -73t15 -107v-104q0 -88 -50.5 -158t-129.5 -98 q-41 -14 -90 -14t-90 14q-80 28 -130 98t-50 158v104q0 60 -15.5 107t-34 73t-34 72t-15.5 105zM178 1513v152h152v-152h-152zM190 717q0 -59 15.5 -105t34 -72t34 -73t15.5 -107v-104q0 -38 26 -64t64 -26q37 0 63.5 26t26.5 64v104q0 60 -15 107t-33 73t-33 72t-15 105 q0 60 15 107t33 72.5t33 71.5t15 105v39v41v27q0 37 -26.5 63.5t-63.5 26.5q-38 0 -64 -26.5t-26 -63.5v-27v-41v-39q0 -59 -15.5 -105t-34 -71.5t-34 -72.5t-15.5 -107zM424 1513v152h151v-152h-151z" />
<glyph unicode="&#xf9;" d="M10 717q0 60 15 107t33 72.5t33 71.5t15 105v361h181v-361q0 -48 -10 -86t-24.5 -64t-28.5 -52.5t-24 -65t-10 -88.5q0 -59 15 -105.5t33.5 -73t33.5 -73t15 -105.5v-106q0 -37 26.5 -63.5t63.5 -26.5q38 0 64 26.5t26 63.5v106q0 59 -15 105.5t-33 73t-33 73t-15 105.5 q0 60 15 107t33 72.5t33 71.5t15 105v361h180v-361q0 -59 -15 -105t-33 -71.5t-33 -72.5t-15 -107q0 -59 15 -105.5t33 -73t33 -73t15 -105.5v-106q0 -87 -50 -156.5t-130 -97.5q-46 -16 -90 -16t-90 16q-79 28 -130 98t-51 156v106q0 59 -15 105.5t-33 73t-33 73t-15 105.5 zM184 1704l117 -191h152l-117 191h-152z" />
<glyph unicode="&#xfa;" d="M10 717q0 60 15 107t33 72.5t33 71.5t15 105v361h181v-361q0 -48 -10 -86t-24.5 -64t-28.5 -52.5t-24 -65t-10 -88.5q0 -59 15 -105.5t33.5 -73t33.5 -73t15 -105.5v-106q0 -37 26.5 -63.5t63.5 -26.5q38 0 64 26.5t26 63.5v106q0 59 -15 105.5t-33 73t-33 73t-15 105.5 q0 60 15 107t33 72.5t33 71.5t15 105v361h180v-361q0 -59 -15 -105t-33 -71.5t-33 -72.5t-15 -107q0 -59 15 -105.5t33 -73t33 -73t15 -105.5v-106q0 -87 -50 -156.5t-130 -97.5q-46 -16 -90 -16t-90 16q-79 28 -130 98t-51 156v106q0 59 -15 105.5t-33 73t-33 73t-15 105.5 zM303 1513l117 191h149l-114 -191h-152z" />
<glyph unicode="&#xfb;" d="M10 717q0 60 15 107t33 72.5t33 71.5t15 105v361h181v-361q0 -48 -10 -86t-24.5 -64t-28.5 -52.5t-24 -65t-10 -88.5q0 -59 15 -105.5t33.5 -73t33.5 -73t15 -105.5v-106q0 -37 26.5 -63.5t63.5 -26.5q38 0 64 26.5t26 63.5v106q0 59 -15 105.5t-33 73t-33 73t-15 105.5 q0 60 15 107t33 72.5t33 71.5t15 105v361h180v-361q0 -59 -15 -105t-33 -71.5t-33 -72.5t-15 -107q0 -59 15 -105.5t33 -73t33 -73t15 -105.5v-106q0 -87 -50 -156.5t-130 -97.5q-46 -16 -90 -16t-90 16q-79 28 -130 98t-51 156v106q0 59 -15 105.5t-33 73t-33 73t-15 105.5 zM184 1520l117 190h152l116 -190h-151l-41 65l-41 -65h-152z" />
<glyph unicode="&#xfc;" d="M10 717q0 60 15 107t33 72.5t33 71.5t15 105v361h181v-361q0 -48 -10 -86t-24.5 -64t-28.5 -52.5t-24 -65t-10 -88.5q0 -59 15 -105.5t33.5 -73t33.5 -73t15 -105.5v-106q0 -37 26.5 -63.5t63.5 -26.5q38 0 64 26.5t26 63.5v106q0 59 -15 105.5t-33 73t-33 73t-15 105.5 q0 60 15 107t33 72.5t33 71.5t15 105v361h180v-361q0 -59 -15 -105t-33 -71.5t-33 -72.5t-15 -107q0 -59 15 -105.5t33 -73t33 -73t15 -105.5v-106q0 -87 -50 -156.5t-130 -97.5q-46 -16 -90 -16t-90 16q-79 28 -130 98t-51 156v106q0 59 -15 105.5t-33 73t-33 73t-15 105.5 zM178 1513v152h152v-152h-152zM424 1513v152h151v-152h-151z" />
<glyph unicode="&#x2000;" horiz-adv-x="855" />
<glyph unicode="&#x2001;" horiz-adv-x="1710" />
<glyph unicode="&#x2002;" horiz-adv-x="855" />
<glyph unicode="&#x2003;" horiz-adv-x="1710" />
<glyph unicode="&#x2004;" horiz-adv-x="570" />
<glyph unicode="&#x2005;" horiz-adv-x="427" />
<glyph unicode="&#x2006;" horiz-adv-x="285" />
<glyph unicode="&#x2007;" horiz-adv-x="285" />
<glyph unicode="&#x2008;" horiz-adv-x="213" />
<glyph unicode="&#x2009;" horiz-adv-x="342" />
<glyph unicode="&#x200a;" horiz-adv-x="95" />
<glyph unicode="&#x2010;" horiz-adv-x="612" d="M0 717q0 48 10 90h541q-10 -42 -10 -90t10 -90h-541q-10 42 -10 90z" />
<glyph unicode="&#x2011;" horiz-adv-x="612" d="M0 717q0 48 10 90h541q-10 -42 -10 -90t10 -90h-541q-10 42 -10 90z" />
<glyph unicode="&#x2012;" horiz-adv-x="612" d="M0 717q0 48 10 90h541q-10 -42 -10 -90t10 -90h-541q-10 42 -10 90z" />
<glyph unicode="&#x2013;" horiz-adv-x="1085" d="M0 717q0 48 19 90h1005q-19 -42 -19 -90t19 -90h-1005q-19 42 -19 90z" />
<glyph unicode="&#x2014;" horiz-adv-x="2109" d="M0 717q0 48 37 90h2011q-37 -42 -37 -90t37 -90h-2011q-37 42 -37 90z" />
<glyph unicode="&#x2018;" horiz-adv-x="282" d="M0 1024v410h180v-410h-180z" />
<glyph unicode="&#x2019;" horiz-adv-x="282" d="M0 1024v410h180v-410h-180z" />
<glyph unicode="&#x201c;" horiz-adv-x="569" d="M0 1024v410h180v-410h-180zM287 1024v410h180v-410h-180z" />
<glyph unicode="&#x201d;" horiz-adv-x="569" d="M0 1024v410h180v-410h-180zM287 1024v410h180v-410h-180z" />
<glyph unicode="&#x202f;" horiz-adv-x="342" />
<glyph unicode="&#x205f;" horiz-adv-x="427" />
<glyph unicode="&#x20ac;" horiz-adv-x="749" d="M10 666h94q-2 16 -2 51q0 41 4 59h-94q7 48 37.5 106.5t36.5 73.5h92q21 54 21 119v105q0 86 49.5 155t128.5 99h2q46 16 90 16t90 -16q79 -28 129.5 -98t50.5 -156v-88h-180v88q0 37 -26.5 63.5t-63.5 26.5t-63.5 -26.5t-26.5 -63.5v-107q0 -63 -21 -117h199 q-6 -15 -36.5 -73.5t-37.5 -106.5h-196q-4 -18 -4 -59q0 -35 2 -51h196q4 -38 16 -67.5t30 -62.5t26 -51h-197q23 -59 23 -125v-104q0 -38 26.5 -64t63.5 -26t63.5 26t26.5 64v88h180v-88q0 -87 -50 -156.5t-130 -99.5q-41 -14 -90 -14t-90 14l-2 2q-79 28 -128.5 97 t-49.5 157v104q0 66 -23 125h-94q-8 18 -26 51t-30 62.5t-16 67.5z" />
<glyph unicode="&#x25fc;" horiz-adv-x="1433" d="M0 0v1434h1434v-1434h-1434z" />
</font>
</defs>
</svg>
